<svg width="24" height="24" viewBox="0 0 24 24" fill="none" xmlns="http://www.w3.org/2000/svg">
<path fill-rule="evenodd" clip-rule="evenodd" d="M9.3775 0.123915C9.50824 0.125307 9.6332 0.108652 9.75239 0.073954C11.3187 -0.0286516 12.8849 -0.0244899 14.451 0.0864444C15.871 0.197086 17.2456 0.505183 18.5748 1.01073C20.7846 1.92048 22.2966 3.49843 23.1109 5.74457C23.5766 7.0969 23.8516 8.4875 23.9357 9.91634C24.0521 11.7106 24.0105 13.5009 23.8107 15.2872C23.6612 16.5427 23.3363 17.7501 22.836 18.9094C21.9081 20.9194 20.4044 22.3058 18.3249 23.0687C16.6397 23.6381 14.9069 23.9378 13.1264 23.968C11.1236 24.0721 9.14087 23.9222 7.17815 23.5183C3.56552 22.7136 1.337 20.5111 0.49263 16.9109C0.134306 15.2903 -0.0281463 13.6499 0.00527377 11.9897C-0.0347169 10.2244 0.152728 8.4841 0.567607 6.76878C1.45278 3.40263 3.58964 1.31674 6.97821 0.511116C7.7678 0.318078 8.56756 0.18901 9.3775 0.123915Z" fill="url(#paint0_linear_19_32)"/>
<path d="M12.0063 20.9125C16.925 20.9125 20.9125 16.925 20.9125 12.0063C20.9125 7.08747 16.925 3.10001 12.0063 3.10001C7.08747 3.10001 3.10001 7.08747 3.10001 12.0063C3.10001 16.925 7.08747 20.9125 12.0063 20.9125Z" stroke="white" stroke-width="0.9375"/>
<path d="M9.56876 20.4438L12.1938 12.7563L14.9125 20.2094L16.2719 19.4594L18.8969 11.8656C19.3656 10.6469 19.5063 9.6625 19.5063 8.81875C19.5531 7.27188 18.8969 5.9125 17.7719 5.77188C16.7406 5.67813 16.1781 6.6625 16.225 7.27188C16.3188 8.67813 17.725 9.475 17.725 11.3969C17.725 12.8031 16.8344 15.0063 16.225 17.1156L13.1781 8.02188C13.6938 7.975 14.1625 7.975 14.1625 7.975C14.6313 7.92813 14.5844 7.225 14.1156 7.27188C12.5688 7.4125 11.1625 7.36563 9.61563 7.27188C9.14688 7.225 9.10001 7.92813 9.56876 7.975C9.56876 7.975 9.99063 7.975 10.4594 8.02188L11.7719 11.6313L9.89688 17.2094L6.85001 8.02188C7.36563 7.975 7.78751 7.975 7.78751 7.975C8.25626 7.92813 8.20938 7.225 7.74063 7.27188C6.33438 7.36563 4.97501 7.45938 4.64688 7.225L4.22501 8.39688L8.35001 19.7875L9.56876 20.4438Z" fill="white"/>
<defs>
<linearGradient id="paint0_linear_19_32" x1="12" y1="0" x2="12" y2="12" gradientUnits="userSpaceOnUse">
<stop stop-color="#82BBD5"/>
<stop offset="1" stop-color="#21759B"/>
</linearGradient>
</defs>
</svg>
